<?xml version="1.0" standalone="no"?>
<!DOCTYPE svg PUBLIC "-//W3C//DTD SVG 20010904//EN"
 "http://www.w3.org/TR/2001/REC-SVG-20010904/DTD/svg10.dtd">
<svg version="1.0" xmlns="http://www.w3.org/2000/svg"
 width="1452.000000pt" height="1452.000000pt" viewBox="0 0 1452.000000 1452.000000"
 preserveAspectRatio="xMidYMid meet">
<metadata>
Created by potrace 1.14, written by Peter Selinger 2001-2017
</metadata>
<g transform="translate(0.000000,1452.000000) scale(0.100000,-0.100000)"
fill="#000000" stroke="none">
<path d="M7020 12385 c-69 -7 -174 -19 -235 -25 -60 -6 -124 -16 -141 -21 -18
-6 -54 -14 -80 -18 -27 -5 -85 -15 -129 -24 -44 -9 -134 -26 -200 -38 -66 -12
-132 -28 -147 -35 -15 -8 -35 -14 -44 -14 -9 0 -43 -13 -76 -30 -32 -16 -67
-30 -78 -30 -10 0 -22 -4 -25 -10 -3 -5 -13 -10 -22 -10 -9 0 -43 -17 -77 -38
-34 -22 -73 -42 -87 -45 -14 -4 -42 -18 -63 -32 -20 -14 -41 -25 -46 -25 -5 0
-21 -11 -37 -23 -30 -25 -107 -67 -160 -87 -17 -6 -39 -20 -49 -31 -9 -10 -23
-19 -31 -19 -7 0 -13 -3 -13 -8 0 -4 -13 -13 -28 -20 -16 -6 -38 -21 -50 -32
-11 -11 -34 -28 -50 -37 -68 -42 -94 -62 -147 -111 -31 -29 -58 -52 -61 -52
-15 0 -129 -103 -209 -188 -49 -53 -135 -142 -190 -197 -55 -55 -125 -134
-156 -175 -31 -41 -74 -97 -96 -123 -22 -27 -47 -61 -54 -75 -12 -24 -32 -51
-88 -119 -34 -41 -95 -137 -106 -168 -6 -16 -18 -43 -27 -60 -8 -16 -21 -48
-28 -70 -7 -22 -16 -44 -20 -50 -4 -5 -17 -37 -29 -70 -13 -33 -27 -69 -31
-80 -37 -87 -48 -116 -59 -155 -7 -25 -22 -67 -33 -95 -11 -27 -24 -59 -29
-70 -15 -38 -47 -140 -57 -185 -39 -164 -36 -152 -52 -265 -6 -44 -18 -120
-26 -170 -33 -205 -35 -236 -31 -535 6 -336 13 -437 51 -675 30 -186 54 -292
83 -355 11 -25 23 -58 27 -73 4 -16 18 -52 31 -80 14 -28 25 -56 25 -63 0 -34
173 -380 222 -447 21 -28 38 -54 38 -58 0 -4 18 -37 40 -73 22 -36 40 -69 40
-72 0 -4 17 -30 39 -58 21 -28 47 -64 57 -81 10 -16 24 -36 31 -43 7 -7 13
-20 13 -28 0 -8 5 -14 10 -14 6 0 10 -5 10 -11 0 -18 54 -91 139 -187 45 -50
81 -94 81 -97 0 -8 31 -45 91 -108 l57 -58 -67 -31 c-36 -17 -99 -45 -139 -64
-40 -18 -110 -57 -155 -87 -80 -53 -315 -177 -335 -177 -6 0 -12 -4 -14 -9 -4
-10 -140 -87 -183 -103 -34 -13 -210 -103 -270 -138 -22 -13 -85 -49 -140 -80
-55 -31 -126 -73 -157 -93 -31 -20 -88 -50 -125 -68 -37 -17 -84 -44 -104 -60
-20 -16 -40 -29 -43 -29 -7 0 -52 -39 -117 -102 -26 -25 -71 -62 -101 -81 -88
-59 -134 -108 -174 -187 -20 -41 -47 -88 -58 -105 -60 -86 -133 -238 -145
-301 -6 -27 -22 -96 -36 -153 -49 -197 -76 -463 -76 -758 -1 -148 3 -179 21
-168 5 3 11 1 15 -5 3 -5 14 -10 24 -10 10 0 46 -12 82 -26 64 -27 93 -35 199
-54 58 -11 298 -45 390 -55 103 -12 335 -45 380 -55 25 -6 81 -15 125 -21 44
-5 96 -12 115 -15 216 -32 705 -75 780 -69 41 3 107 1 145 -5 39 -5 178 -14
310 -20 132 -5 272 -14 310 -20 39 -5 272 -12 518 -15 312 -3 479 -9 550 -19
56 -8 127 -18 157 -21 66 -8 94 -24 108 -63 13 -39 -8 -89 -45 -103 -72 -28
-662 -31 -1623 -7 -465 11 -653 7 -739 -16 -64 -18 -84 -34 -100 -84 -32 -96
42 -193 169 -220 116 -25 457 -41 925 -42 259 -1 691 -6 960 -11 270 -5 704
-12 965 -15 261 -4 522 -8 580 -9 117 -2 202 -22 263 -61 44 -29 77 -78 77
-116 0 -50 -39 -135 -80 -171 -60 -55 -9 -53 -1010 -48 -371 1 -841 -1 -1044
-5 l-368 -7 -32 -26 c-68 -56 -86 -83 -85 -131 0 -58 12 -78 81 -135 83 -68
119 -75 388 -75 242 -1 427 -17 475 -43 20 -10 41 -35 58 -69 50 -99 29 -210
-46 -246 -15 -7 -95 -17 -186 -22 -140 -8 -166 -12 -209 -34 -60 -30 -98 -73
-112 -127 -17 -61 -5 -95 43 -127 121 -80 340 -101 1127 -107 311 -3 669 -9
795 -15 450 -19 759 -9 834 27 51 25 66 62 65 159 0 98 -5 106 -94 147 -89 40
-238 57 -512 57 l-218 0 -30 27 c-24 23 -33 43 -45 106 -9 44 -13 92 -10 109
10 43 58 92 114 117 45 19 62 20 247 16 1269 -28 1942 -34 2227 -19 107 6 122
9 148 32 38 31 64 82 79 155 11 53 10 59 -10 84 -12 15 -49 43 -83 61 l-62 33
-407 0 c-428 -1 -458 1 -560 47 -49 22 -93 78 -103 134 -13 69 36 166 108 215
l42 28 190 -2 c105 -1 460 -5 790 -9 330 -5 707 -8 837 -9 l237 0 31 30 c18
17 43 49 57 73 33 55 28 111 -13 154 -57 59 -56 58 -459 63 -203 2 -419 7
-480 10 -60 4 -171 10 -245 14 -74 4 -191 4 -260 0 -294 -18 -1095 -9 -1168
13 -81 24 -120 95 -87 158 24 47 65 59 217 66 86 3 143 10 162 20 20 10 33 11
42 4 8 -8 13 -7 16 1 3 8 39 11 118 9 289 -5 405 -3 446 9 28 8 33 6 42 -13 9
-20 10 -20 17 6 6 24 9 26 21 13 8 -8 21 -12 28 -9 8 3 67 -2 132 -10 124 -16
397 -20 445 -6 15 5 29 5 31 1 2 -3 64 -3 138 2 74 4 203 9 285 11 167 3 411
23 465 37 19 5 70 9 113 9 62 0 366 36 472 55 70 13 141 22 147 19 3 -2 8 1
10 6 2 6 30 18 63 26 33 9 65 20 71 25 8 6 14 4 18 -7 6 -16 8 -15 22 5 11 15
22 20 36 15 11 -3 33 0 49 6 l29 12 0 99 c0 140 -31 288 -120 574 -17 55 -40
134 -51 175 -19 70 -46 135 -91 220 -11 19 -28 55 -39 79 -23 51 -60 99 -139
183 -32 33 -72 85 -91 116 -49 80 -142 171 -229 222 -41 24 -92 61 -112 81
-35 34 -167 129 -180 129 -3 0 -55 33 -116 74 -61 41 -126 76 -144 79 -18 2
-49 11 -68 18 -32 12 -138 91 -200 147 -40 36 -80 58 -154 82 -37 12 -96 38
-130 57 -68 39 -149 73 -172 73 -9 0 -44 23 -79 50 -35 27 -68 50 -74 50 -6 0
-11 4 -11 9 0 5 -24 16 -52 26 -29 9 -63 23 -75 31 -12 8 -30 14 -40 14 -10 0
-54 22 -99 49 -45 27 -99 54 -120 61 -21 7 -55 20 -74 30 -19 10 -51 24 -70
31 -34 12 -192 123 -198 139 -2 4 16 23 40 41 24 18 72 61 108 96 58 55 89 84
168 153 12 11 25 20 28 20 8 0 144 145 144 154 0 6 44 70 105 151 25 33 48 67
52 75 8 18 85 114 96 118 4 2 7 9 7 15 0 7 14 30 30 51 17 22 30 44 30 48 0 5
13 28 28 51 36 54 84 155 121 254 16 43 48 123 71 178 46 108 100 269 100 297
0 10 9 41 19 70 40 109 92 336 102 443 5 61 14 155 20 210 6 55 13 136 16 180
9 118 -15 479 -43 640 -27 161 -66 342 -81 370 -6 11 -16 49 -23 85 -7 36 -16
70 -20 75 -3 6 -12 30 -19 55 -6 25 -16 54 -20 65 -5 11 -18 47 -31 80 -26 73
-38 102 -55 135 -7 14 -20 51 -30 83 -10 31 -22 57 -26 57 -5 0 -9 6 -9 14 0
32 -103 243 -154 316 -18 25 -45 67 -61 95 -16 27 -35 56 -43 65 -7 8 -27 35
-45 60 -101 139 -179 236 -260 325 -106 116 -318 325 -330 325 -4 0 -26 18
-49 40 -23 22 -50 42 -60 46 -10 3 -18 11 -18 18 0 8 -13 19 -30 26 -16 7 -30
16 -30 20 0 5 -17 19 -37 31 -21 13 -44 29 -51 36 -8 8 -26 20 -42 28 -15 8
-30 21 -33 28 -3 8 -38 31 -79 52 -40 21 -80 43 -88 50 -8 7 -31 21 -50 30
-19 10 -37 21 -40 25 -3 3 -30 20 -60 36 -30 17 -71 39 -90 50 -30 17 -74 36
-265 114 -11 5 -29 11 -40 13 -11 3 -58 19 -105 37 -47 18 -101 36 -120 40
-19 5 -77 22 -128 39 -50 17 -100 31 -111 31 -10 0 -37 7 -60 15 -50 17 -151
40 -361 80 -119 22 -496 28 -660 10z"/>
<path d="M11890 8900 c0 -5 5 -10 11 -10 5 0 7 5 4 10 -3 6 -8 10 -11 10 -2 0
-4 -4 -4 -10z"/>
</g>
</svg>
